<svg xmlns="http://www.w3.org/2000/svg" enable-background="new 0 0 64 64" viewBox="0 0 64 64"><path d="M27.73,11.19C16.26,11.19,6.92,20.52,6.92,32s9.34,20.81,20.81,20.81S48.55,43.48,48.55,32S39.21,11.19,27.73,11.19z
		 M27.73,50.87C17.32,50.87,8.86,42.41,8.86,32s8.47-18.87,18.87-18.87c10.41,0,18.87,8.47,18.87,18.87S38.14,50.87,27.73,50.87z"/><path d="M40.52 24.53c0-2.84-2.31-5.16-5.16-5.16-2.84 0-5.16 2.31-5.16 5.16 0 2.51 1.81 4.6 4.19 5.06v4.81c-2.38.46-4.19 2.55-4.19 5.06 0 2.84 2.31 5.16 5.16 5.16 2.84 0 5.16-2.31 5.16-5.16 0-2.51-1.81-4.6-4.19-5.06v-4.81C38.72 29.14 40.52 27.05 40.52 24.53zM32.15 24.53c0-1.77 1.44-3.22 3.22-3.22 1.77 0 3.22 1.44 3.22 3.22 0 1.43-.95 2.64-2.25 3.05v-3.57c0-.54-.43-.97-.97-.97-.54 0-.97.43-.97.97v3.57C33.1 27.17 32.15 25.97 32.15 24.53zM38.59 39.47c0 1.77-1.44 3.22-3.22 3.22-1.77 0-3.22-1.44-3.22-3.22 0-1.43.95-2.64 2.25-3.05v3.05c0 .54.43.97.97.97.54 0 .97-.43.97-.97v-3.05C37.64 36.83 38.59 38.03 38.59 39.47zM25.25 24.53c0-2.26-1.47-4.16-3.5-4.86-.05-.03-.11-.04-.17-.05-.47-.14-.97-.25-1.49-.25-2.84 0-5.16 2.31-5.16 5.16 0 2.51 1.81 4.6 4.19 5.06v4.81c-2.38.46-4.19 2.55-4.19 5.06 0 2.84 2.31 5.16 5.16 5.16 2.84 0 5.16-2.31 5.16-5.16 0-2.51-1.81-4.6-4.19-5.06v-4.81C23.45 29.14 25.25 27.05 25.25 24.53zM16.88 24.53c0-1.77 1.44-3.22 3.22-3.22 1.77 0 3.22 1.44 3.22 3.22 0 1.43-.95 2.64-2.25 3.05v-3.57c0-.54-.43-.97-.97-.97-.54 0-.97.43-.97.97v3.57C17.83 27.17 16.88 25.97 16.88 24.53zM23.31 39.47c0 1.77-1.44 3.22-3.22 3.22-1.77 0-3.22-1.44-3.22-3.22 0-1.43.95-2.64 2.25-3.05v3.05c0 .54.43.97.97.97.54 0 .97-.43.97-.97v-3.05C22.36 36.83 23.31 38.03 23.31 39.47z"/><path d="M45.98,11.14C41.1,6.87,34.72,4.27,27.73,4.27C12.44,4.27,0,16.71,0,32s12.44,27.73,27.73,27.73
		c2.98,0,5.86-0.48,8.55-1.36c1.2,0.18,2.37,0.28,3.57,0.28C53.17,58.65,64,47.82,64,34.51C64,23.5,56.6,13.93,45.98,11.14z
		 M1.94,32c0-14.22,11.57-25.79,25.79-25.79c14.22,0,25.79,11.57,25.79,25.79S41.96,57.79,27.73,57.79
		C13.51,57.79,1.94,46.22,1.94,32z M40.32,56.7C49.3,52.11,55.46,42.76,55.46,32c0-6.73-2.41-12.91-6.42-17.72
		c7.82,3.55,13.01,11.38,13.01,20.22C62.06,46.6,52.35,56.45,40.32,56.7z"/></svg>